<svg id="Layer_1" data-name="Layer 1" xmlns="http://www.w3.org/2000/svg" width="700" height="700" viewBox="0 0 700 700"><defs><style>.cls-1,.cls-4{fill:#000da6;}.cls-1,.cls-2,.cls-3{fill-rule:evenodd;}.cls-2{fill:#f60;}.cls-3{fill:#a60000;}</style></defs><title>icici_lombard_logo</title><path class="cls-1" d="M396.63,363.35,377.4,373.6,364.61,366s2.65-1.61,5.65-3.57,1.73-2.42.11-4.26c-3.11-2.19-16.7-10.94-16.7-10.94l4.38-2.19-4-9.44,9.56-.23.23-5.53S378.66,339.4,381,340.2s4.26-.46,4.61-3.8v-21l6,2.76,4.49-7.94.23-.35a37.47,37.47,0,0,0-22.81-7.6,38,38,0,1,0,0,75.9,37.38,37.38,0,0,0,23-7.83Z"/><polygon class="cls-1" points="396.29 321.89 393.98 321.89 393.98 358.4 365.54 341.58 364.38 343.54 394.33 361.28 396.29 359.55 396.29 321.89"/><polygon class="cls-1" points="108.81 377.87 126.78 377.87 140.94 325.12 122.98 325.12 108.81 377.87"/><polygon class="cls-1" points="201.53 377.87 219.49 377.87 233.66 325.12 215.69 325.12 201.53 377.87"/><polygon class="cls-1" points="294.13 377.87 312.21 377.87 326.26 325.12 308.29 325.12 294.13 377.87"/><path class="cls-1" d="M184.6,343.2h18.19c2.31-11.87-5.41-18-23.15-18-20.38,0-34.2,10-38.93,27.3C136.45,368.42,144.86,378,164.1,378c19.57,0,31.09-6.1,35.81-19.58H181.83c-2.53,6-7.25,9.1-13.7,9.1-8.64,0-12.1-5.53-9.45-15.55,2.77-10.48,9.45-16.24,18.2-16.24C182.52,335.71,185.17,338.13,184.6,343.2Z"/><path class="cls-1" d="M277.43,343.2h18c2.42-11.87-5.29-18-22.92-18-20.5,0-34.43,10-39,27.3-4.26,15.89,4.15,25.45,23.38,25.45,19.46,0,31-6.1,35.94-19.58h-18.2c-2.54,6-7.26,9.1-13.71,9.1-8.75,0-12.09-5.53-9.33-15.55,2.77-10.48,9.33-16.24,18.09-16.24C275.12,335.71,277.77,338.13,277.43,343.2Z"/><path class="cls-1" d="M408,326.73h4.37l1.15.57,1.27-.57h4.95v46.18s15.9,0,18.09-.57c-.93,2.3-.7,4.6.23,5.75h-30Z"/><path class="cls-1" d="M460,376.14c-2.08-.12-9.68-2-10-15.09.46-11.86,6.68-16.7,10-16.82,2.19-.11,9.56,1.85,9.56,16.24,0,11.64-6.34,16-9.56,15.67m.69-35c-5.53,0-19.58,1.85-19.58,19.24,0,20.38,18.89,18.2,18.89,18.2,6.45,0,18.43-1.73,19.12-17.86C479.1,340.32,460.67,341.12,460.67,341.12Z"/><path class="cls-1" d="M564.44,375.33c-2-.23-8.87-1.84-9.1-14.05.35-10.94,6.11-15.32,9.1-15.43,2.07-.12,8.87,1.72,8.87,15,0,10.6-5.87,14.74-8.87,14.51m4.38-32.94c-7.49-.69-11.86,3-11.86,3V321.54h-3.81L552,322l-1.26-.58-4.38.11.11,56.09H551a42.51,42.51,0,0,0,3.45-3.22c3.8,4.15,9.45,3.8,13.25,3.8s15.66-3.69,15.66-18.2S573.54,343.2,568.82,342.39Z"/><path class="cls-1" d="M671.78,374.76c-2.64.23-7.94-3.81-7.94-14.52,0-13.24,6.22-15,7.94-15,2.77.12,8,4.61,8.3,15.55-.23,12.09-6.57,13.82-8.3,13.94m12.79-53.33-1.15.58-1.15-.47h-3.34v23.85a18.11,18.11,0,0,0-12.33-3.34c-4.84.69-15.2,4.6-15.2,18.08,0,14.51,8,19.23,16.12,19.58,3.8.11,7.6.34,11.41-3.8,0,0,.11,2.3.11,3.11h9.44V321.43Z"/><path class="cls-1" d="M485.2,341.82h3.34l1,.8.92-.8h3v2.41c2.54-2.18,14.4-6.91,21.2,2,0,0,2.76-4.95,13-4.95,6.45.46,11.86,5.07,11.86,11.4v25.8s-5.87-1.27-9.1,0V355.75c0-7.14-3.33-9.9-6.56-9.9-3.11.23-7.26,3.45-7.26,10.36v22.23s-5.87-1.15-8.52,0V356.1s.81-10-6.45-10c-6.56,0-7.25,7.14-7.25,10.25v22.11s-6.34-.81-9.1.12c0-1.16-.12-36.74-.12-36.74"/><path class="cls-1" d="M635.85,360.82v17.62s-6.91-.81-9.67.12V341.82h4.26l1,.8,1-.8h3.34v3.1c1.61.47,2.19-4.49,13.82-3.1,0,1.38-.57,9.55-.57,9.55a7.08,7.08,0,0,1-5-.46c-1.84-1-8.17.81-8.29,9.91"/><path class="cls-1" d="M607.17,371.07c-.92,2.3-5.07,5.53-7.95,4.49-1.72-.57-4.72-2.07-4.26-7.95.12-2.3,2.31-4.6,12.21-6.79v10.25m9.45,2.76V353.56c0-11.05-6.45-11.17-13.71-12-9.91,0-13.24,3.69-14.4,4.84v3.92h4.15a11.07,11.07,0,0,1,4.84-4.61c3.8-1.61,7.71,1.15,9.21,3.92,1.27,2.19,1.61,7.83-2.42,8.52-11.86,1.38-16.35,4.38-17.73,7.37-4.61,12.78,7.6,13.94,7.6,13.94,3.57.92,12.09-.23,13.93-3,1.73,3.92,12.33,2.65,12.67,1v-1.84C617.31,375.91,617.08,375.56,616.62,373.83Z"/><path class="cls-2" d="M39,295.5c24.14-23.86,53.44-30.14,65-13.67s1.39,49.26-22.75,73.12a99.49,99.49,0,0,1-14.23,11.86c-15.49,5.58,5.16-49.12,7-53.73,2.1-6.55-4.46-8.93-10.32-7.25-5.59,1.81-20.66,12.84-24.56,17.3-3.77,4.61-.56,5.58,2,4.19,4.88-2.93,9.35-3.49,11.44-1,1.12,1.54.7,8.79-1.39,18.84a148.69,148.69,0,0,1-6.56,20.37c-3.21,6.84-7,12-11.58,12.15a22.35,22.35,0,0,1-16.61-8.93C4.57,352.3,14.89,319.64,39,295.5M84.11,282c-2.79-2.65-9.07-1.25-14,3.63-4.89,5-6.42,11.17-3.63,14s9.07,1.11,13.81-3.77S86.9,284.76,84.11,282Z"/><path class="cls-3" d="M55.08,282.8c19.68-12.7,39.78-13.81,49-1,4,6,5.3,13.81,4.46,22.88-3.35,12.42-11.16,25.4-22.6,36.84A77.7,77.7,0,0,1,61.5,358c1-14.51,11.31-41.59,12.56-44.94,2.1-6.55-4.46-8.93-10.32-7.25-5.59,1.81-20.66,12.84-24.56,17.3-3.77,4.61-.56,5.58,2,4.19,4.88-2.93,9.35-3.49,11.44-1,1.12,1.54.7,8.79-1.39,18.84a141,141,0,0,1-5,16.33c-7.81.28-14.37-2.51-18.7-8.1C17.13,339.18,25.92,310.29,47,289.64a82.43,82.43,0,0,1,8.09-6.84m29-.84c-2.79-2.65-9.07-1.25-14,3.63-4.89,5-6.42,11.17-3.63,14s9.07,1.11,13.81-3.77S86.9,284.76,84.11,282Z"/><path class="cls-1" d="M188.69,425.87V417h-7.24v3H185v4.23a11.36,11.36,0,0,1-3,.29c-3.76,0-5.86-2.3-5.86-6.76s2.1-7.36,5.21-7.36c2.39,0,3.81,1.36,3.81,3.63h3.57v-.33c0-3.42-2.57-5.87-7.06-5.87-6,0-9.45,3.81-9.45,10.07,0,6.06,3.48,9.46,9.6,9.46a14,14,0,0,0,6.91-1.51"/><polygon class="cls-1" points="203.76 408.14 203.76 427.08 215.88 427.08 215.88 423.98 207.63 423.98 207.63 418.81 215.11 418.81 215.11 415.85 207.63 415.85 207.63 411.36 215.76 411.36 215.76 408.14 203.76 408.14"/><polygon class="cls-1" points="230.29 408.14 230.29 427.08 233.75 427.08 233.75 411.48 240.81 427.08 246.07 427.08 246.07 408.14 242.62 408.14 242.62 423.5 235.88 408.14 230.29 408.14"/><polygon class="cls-1" points="261.29 408.14 261.29 427.08 273.58 427.08 273.58 423.98 265.16 423.98 265.16 418.81 272.64 418.81 272.64 415.85 265.16 415.85 265.16 411.36 273.26 411.36 273.26 408.14 261.29 408.14"/><path class="cls-1" d="M287.82,427.08V408.15h7.57c4.17,0,6.08,1.53,6.08,4.81,0,2.74-1,4-3.6,4.64,2.13.32,2.87,1.21,3.16,3.66l.27,2.72a6.59,6.59,0,0,0,.94,3.1h-4.16a4.73,4.73,0,0,1-.45-2.21l-.29-2.9c-.21-2.22-.33-2.37-2.31-2.37h-3.45v7.48Zm3.76-10.67H294c2.57,0,3.66-.41,3.66-2.5,0-2.43-1.09-2.69-3.66-2.69h-2.39Z"/><path class="cls-1" d="M314.41,427.08l6.48-18.93h4.64l6.11,18.93h-3.9L326.56,423h-7.18L318,427.08Zm6-7.06h5.12l-2.4-8.12Z"/><polygon class="cls-1" points="345.2 408.14 345.2 427.08 357.23 427.08 357.23 423.98 349.1 423.98 349.1 408.14 345.2 408.14"/><rect class="cls-4" x="387.25" y="408.15" width="3.72" height="18.94"/><polygon class="cls-1" points="406.22 408.14 406.22 427.08 409.61 427.08 409.61 411.48 416.5 427.08 421.91 427.08 421.91 408.14 418.48 408.14 418.48 423.5 411.75 408.14 406.22 408.14"/><path class="cls-1" d="M440.14,420.93h-3.78v.33c0,4.19,2.42,6.12,7.06,6.12,4.81,0,7.36-2.07,7.36-5.59,0-3.28-1.87-4.34-5.56-5.49-3-1-4.7-1.66-4.7-3.34,0-1.48,1.07-2.54,3.08-2.54,1.74,0,2.8,1.06,2.92,3.16H450v-.12c0-3.45-2.25-5.61-6.27-5.61-4.37,0-6.94,2.3-6.94,5.61a4.34,4.34,0,0,0,1.68,3.52,10.47,10.47,0,0,0,3.73,1.68c3,1.24,4.63,1.68,4.63,3.43a2.83,2.83,0,0,1-3.1,2.78c-2.45,0-3.6-1.37-3.6-3.94"/><path class="cls-1" d="M469,408.15h-4V419.9c0,5.14,2.57,7.48,7.77,7.48s7.71-2.34,7.71-7.48V408.15h-3.61V420c0,2.86-1.24,4.38-3.9,4.38s-4-1.37-4-4.23Z"/><path class="cls-1" d="M495.65,427.08V408.15H503c4.17,0,6.15,1.53,6.15,4.81,0,2.74-1.07,4-3.49,4.64,2.1.32,2.72,1.21,3,3.66L509,424a5.26,5.26,0,0,0,1.1,3.1h-4.2a5.34,5.34,0,0,1-.65-2.21l-.15-2.9c-.29-2.22-.41-2.37-2.36-2.37h-3.37v7.48Zm3.73-10.67h2.31c2.53,0,3.75-.41,3.75-2.5,0-2.43-1.22-2.69-3.75-2.69h-2.31Z"/><path class="cls-1" d="M522.07,427.08l6.45-18.93h4.72l6.32,18.93h-4.08L534.27,423h-7.09l-1.5,4.05Zm6.06-7.06h5.23l-2.57-8.12Z"/><polygon class="cls-1" points="552.89 408.14 552.89 427.08 556.29 427.08 556.29 411.48 563.38 427.08 568.67 427.08 568.67 408.14 565.21 408.14 565.21 423.5 558.44 408.14 552.89 408.14"/><path class="cls-1" d="M591.3,427.38c4.49,0,7.13-2.07,7.42-5.88h-3.64a3.26,3.26,0,0,1-3.45,3.22c-3.14,0-4.64-2.31-4.64-7.12,0-4.64,1.62-6.86,4.46-6.86,2.13,0,3.49,1.16,3.63,3h3.49c-.14-3.57-2.78-5.87-7.27-5.87-5.23,0-8.24,3.63-8.24,9.93s2.8,9.6,8.24,9.6"/><polygon class="cls-1" points="612.99 408.14 612.99 427.08 625.13 427.08 625.13 423.98 616.8 423.98 616.8 418.81 624.34 418.81 624.34 415.85 616.8 415.85 616.8 411.36 624.81 411.36 624.81 408.14 612.99 408.14"/><rect class="cls-4" x="108.81" y="416.81" width="55.05" height="1.61"/><rect class="cls-4" x="633.45" y="416.81" width="55.05" height="1.61"/></svg>